<?xml version="1.0" encoding="UTF-8" standalone="no"?>
<!-- Created with Inkscape (http://www.inkscape.org/) -->

<svg
   width="16"
   height="16"
   viewBox="0 0 4.2333332 4.2333335"
   version="1.1"
   id="svg8"
   inkscape:version="1.1.2 (0a00cf5339, 2022-02-04)"
   sodipodi:docname="db-white.svg"
   xmlns:inkscape="http://www.inkscape.org/namespaces/inkscape"
   xmlns:sodipodi="http://sodipodi.sourceforge.net/DTD/sodipodi-0.dtd"
   xmlns="http://www.w3.org/2000/svg"
   xmlns:svg="http://www.w3.org/2000/svg"
   xmlns:rdf="http://www.w3.org/1999/02/22-rdf-syntax-ns#"
   xmlns:cc="http://creativecommons.org/ns#"
   xmlns:dc="http://purl.org/dc/elements/1.1/">
  <defs
     id="defs2" />
  <sodipodi:namedview
     id="base"
     pagecolor="#ffffff"
     bordercolor="#666666"
     borderopacity="1.0"
     inkscape:pageopacity="0.0"
     inkscape:pageshadow="2"
     inkscape:zoom="22.627417"
     inkscape:cx="0.13258252"
     inkscape:cy="10.628699"
     inkscape:document-units="mm"
     inkscape:current-layer="layer1"
     showgrid="false"
     units="px"
     inkscape:window-width="1920"
     inkscape:window-height="1016"
     inkscape:window-x="0"
     inkscape:window-y="0"
     inkscape:window-maximized="1"
     inkscape:pagecheckerboard="0" />
  <metadata
     id="metadata5">
    <rdf:RDF>
      <cc:Work
         rdf:about="">
        <dc:format>image/svg+xml</dc:format>
        <dc:type
           rdf:resource="http://purl.org/dc/dcmitype/StillImage" />
      </cc:Work>
    </rdf:RDF>
  </metadata>
  <g
     inkscape:label="Layer 1"
     inkscape:groupmode="layer"
     id="layer1"
     transform="translate(0,-292.76665)">
    <path
       style="color:#000000;fill:#ffffff;-inkscape-stroke:none"
       d="m 2.1210938,292.98242 c -0.5553988,0 -1.0587222,0.0742 -1.43554693,0.19922 -0.18841236,0.0625 -0.34461877,0.13615 -0.46484374,0.23047 -0.12022498,0.0943 -0.21289063,0.22195 -0.21289063,0.37305 0,0.1511 0.09266565,0.27677 0.21289063,0.37109 0.12022497,0.0943 0.27643138,0.16795 0.46484374,0.23047 0.37682473,0.12504 0.88014813,0.19922 1.43554693,0.19922 0.5553987,0 1.0587221,-0.0742 1.4355468,-0.19922 0.1884124,-0.0625 0.3465719,-0.13615 0.4667969,-0.23047 0.120225,-0.0943 0.2109375,-0.21999 0.2109375,-0.37109 0,-0.1511 -0.090713,-0.27873 -0.2109375,-0.37305 -0.120225,-0.0943 -0.2783845,-0.16795 -0.4667969,-0.23047 -0.3768247,-0.12504 -0.8801481,-0.19922 -1.4355468,-0.19922 z m 0,0.30078 c 0.5284496,0 1.00639,0.0729 1.3398437,0.1836 0.1667269,0.0553 0.2985642,0.12014 0.3769531,0.18164 0.078389,0.0615 0.095703,0.108 0.095703,0.13672 0,0.0287 -0.017314,0.0733 -0.095703,0.13476 -0.078389,0.0615 -0.2102262,0.12632 -0.3769531,0.18164 -0.3334537,0.11065 -0.8113941,0.1836 -1.3398437,0.1836 -0.5284497,0 -1.0063901,-0.0729 -1.3398438,-0.1836 -0.16672686,-0.0553 -0.29661108,-0.12014 -0.375,-0.18164 -0.0783889,-0.0615 -0.0976563,-0.10604 -0.0976563,-0.13476 0,-0.0287 0.0192673,-0.0752 0.0976563,-0.13672 0.0783889,-0.0615 0.20827314,-0.12632 0.375,-0.18164 0.3334537,-0.11065 0.8113941,-0.1836 1.3398438,-0.1836 z"
       id="path815" />
    <path
       style="color:#000000;fill:#ffffff;-inkscape-stroke:none"
       d="m 3.9726563,293.74414 v 2.39648 c -0.1613763,0.22931 -0.438983,0.39326 -0.7988282,0.48633 -0.3696417,0.0956 -0.8102581,0.11939 -1.234375,0.0879 -0.4241169,-0.0315 -0.8343486,-0.11709 -1.1425781,-0.23242 -0.30350524,-0.11356 -0.48595034,-0.26861 -0.51757812,-0.35351 v -2.36914 h -0.265625 v 2.42578 l 0.0058594,0.0195 c 0.0799451,0.24749 0.34639286,0.39849 0.68554687,0.52539 0.33915398,0.1269 0.76797518,0.21486 1.21484378,0.24805 0.4468686,0.0332 0.9101289,0.01 1.3183594,-0.0957 0.4082304,-0.10558 0.7671786,-0.29537 0.9765624,-0.61133 l 0.023437,-0.0332 v -2.49414 z"
       id="path817" />
    <path
       style="color:#000000;fill:#ffffff;-inkscape-stroke:none"
       d="m 4.0234375,294.9668 c -0.1585386,0.23923 -0.4542041,0.4086 -0.828125,0.50781 -0.3739209,0.0992 -0.81858,0.1264 -1.2480469,0.0996 -0.4294668,-0.0268 -0.8442084,-0.10881 -1.15624998,-0.2207 -0.31204154,-0.1119 -0.50463036,-0.26916 -0.53124999,-0.35157 l -0.25195313,0.082 c 0.08044656,0.24905 0.35021085,0.39648 0.69335937,0.51954 0.34314853,0.12305 0.77658823,0.20618 1.22851563,0.23437 0.4519274,0.0282 0.9222265,0.002 1.3339844,-0.10742 0.4117578,-0.10925 0.7709638,-0.30104 0.9804687,-0.61719 z"
       id="path819" />
  </g>
</svg>
