<?xml version="1.0" encoding="UTF-8" standalone="no"?>
<svg
   width="16"
   height="16"
   viewBox="0 0 12 12"
   xml:space="preserve"
   version="1.1"
   id="svg28"
   sodipodi:docname="type-binary-white.svg"
   inkscape:version="1.1.2 (0a00cf5339, 2022-02-04)"
   xmlns:inkscape="http://www.inkscape.org/namespaces/inkscape"
   xmlns:sodipodi="http://sodipodi.sourceforge.net/DTD/sodipodi-0.dtd"
   xmlns="http://www.w3.org/2000/svg"
   xmlns:svg="http://www.w3.org/2000/svg"
   xmlns:rdf="http://www.w3.org/1999/02/22-rdf-syntax-ns#"
   xmlns:cc="http://creativecommons.org/ns#"
   xmlns:dc="http://purl.org/dc/elements/1.1/"><metadata
   id="metadata34"><rdf:RDF><cc:Work
       rdf:about=""><dc:format>image/svg+xml</dc:format><dc:type
         rdf:resource="http://purl.org/dc/dcmitype/StillImage" /></cc:Work></rdf:RDF></metadata><defs
   id="defs32" /><sodipodi:namedview
   pagecolor="#ffffff"
   bordercolor="#666666"
   borderopacity="1"
   objecttolerance="10"
   gridtolerance="10"
   guidetolerance="10"
   inkscape:pageopacity="0"
   inkscape:pageshadow="2"
   inkscape:window-width="1920"
   inkscape:window-height="1016"
   id="namedview30"
   showgrid="false"
   inkscape:zoom="17.984758"
   inkscape:cx="15.17952"
   inkscape:cy="4.4204098"
   inkscape:window-x="0"
   inkscape:window-y="0"
   inkscape:window-maximized="1"
   inkscape:current-layer="Layer_x0020_3"
   units="px"
   inkscape:pagecheckerboard="0" />
<g
   id="orginal"
   style="clip-rule:nonzero;fill-rule:nonzero;stroke:#000000;stroke-miterlimit:4"
   transform="translate(0,-433.383)">
	</g>
<g
   id="Layer_x0020_3"
   style="clip-rule:nonzero;fill:none;fill-rule:nonzero;stroke:#ffffff;stroke-width:12.46510029;stroke-linecap:round;stroke-linejoin:round;stroke-miterlimit:4"
   transform="translate(0,-433.383)">












<g
   aria-label="01 10"
   id="text830"
   style="font-size:9.81074px;letter-spacing:0px;word-spacing:0px;fill:#ffffff;stroke:none;stroke-width:3.0573"><path
     d="m 4.5864258,436.45438 q 0,-0.82032 -0.1552735,-1.1543 -0.1523437,-0.33691 -0.515625,-0.33691 -0.3632812,0 -0.5185546,0.33691 -0.1552735,0.33398 -0.1552735,1.1543 0,0.8291 0.1552735,1.16894 0.1552734,0.33985 0.5185546,0.33985 0.3603516,0 0.515625,-0.33985 0.1552735,-0.33984 0.1552735,-1.16894 z m 1.1279297,0.009 q 0,1.08691 -0.46875,1.67871 -0.46875,0.58886 -1.3300782,0.58886 -0.8642578,0 -1.3330078,-0.58886 -0.46875,-0.5918 -0.46875,-1.67871 0,-1.08985 0.46875,-1.67872 0.46875,-0.59179 1.3330078,-0.59179 0.8613282,0 1.3300782,0.59179 0.46875,0.58887 0.46875,1.67872 z"
     style="-inkscape-font-specification:Sans;fill:#ffffff"
     id="path826" /><path
     d="m 6.7045898,437.86649 h 0.9960938 v -2.82715 l -1.0224609,0.21093 v -0.76757 l 1.0166015,-0.21094 h 1.0722656 v 3.59473 h 0.9960938 v 0.77929 H 6.7045898 Z"
     style="-inkscape-font-specification:Sans;fill:#ffffff"
     id="path828" /><path
     d="m 2.5297852,443.70907 h 0.9960937 v -2.82715 l -1.0224609,0.21094 v -0.76758 l 1.0166015,-0.21094 h 1.0722657 v 3.59473 h 0.9960937 v 0.7793 H 2.5297852 Z"
     style="-inkscape-font-specification:Sans;fill:#ffffff"
     id="path830" /><path
     d="m 8.7612305,442.29696 q 0,-0.82031 -0.1552735,-1.1543 -0.1523437,-0.33691 -0.515625,-0.33691 -0.3632812,0 -0.5185547,0.33691 -0.1552734,0.33399 -0.1552734,1.1543 0,0.8291 0.1552734,1.16895 0.1552735,0.33984 0.5185547,0.33984 0.3603516,0 0.515625,-0.33984 0.1552735,-0.33985 0.1552735,-1.16895 z m 1.1279297,0.009 q 0,1.08691 -0.46875,1.67871 -0.46875,0.58887 -1.3300782,0.58887 -0.8642578,0 -1.3330078,-0.58887 -0.46875,-0.5918 -0.46875,-1.67871 0,-1.08984 0.46875,-1.67871 0.46875,-0.5918 1.3330078,-0.5918 0.8613282,0 1.3300782,0.5918 0.46875,0.58887 0.46875,1.67871 z"
     style="-inkscape-font-specification:Sans;fill:#ffffff"
     id="path832" /></g>



</g>
</svg>
