<?xml version="1.0" encoding="UTF-8" standalone="no"?>
<svg
   width="16"
   height="16"
   viewBox="0 0 4.2333332 4.2333335"
   version="1.1"
   id="svg8"
   inkscape:version="1.1.1 (3bf5ae0d25, 2021-09-20)"
   sodipodi:docname="inner-symbolic.svg"
   xmlns:inkscape="http://www.inkscape.org/namespaces/inkscape"
   xmlns:sodipodi="http://sodipodi.sourceforge.net/DTD/sodipodi-0.dtd"
   xmlns="http://www.w3.org/2000/svg"
   xmlns:svg="http://www.w3.org/2000/svg"
   xmlns:rdf="http://www.w3.org/1999/02/22-rdf-syntax-ns#"
   xmlns:cc="http://creativecommons.org/ns#"
   xmlns:dc="http://purl.org/dc/elements/1.1/">
  <defs
     id="defs2" />
  <sodipodi:namedview
     id="base"
     pagecolor="#ffffff"
     bordercolor="#666666"
     borderopacity="1.0"
     inkscape:pageopacity="0.0"
     inkscape:pageshadow="2"
     inkscape:zoom="31.678384"
     inkscape:cx="5.2717336"
     inkscape:cy="6.7396115"
     inkscape:document-units="mm"
     inkscape:current-layer="g845"
     inkscape:document-rotation="0"
     showgrid="false"
     units="px"
     inkscape:window-width="1920"
     inkscape:window-height="1016"
     inkscape:window-x="0"
     inkscape:window-y="0"
     inkscape:window-maximized="1"
     inkscape:pagecheckerboard="0" />
  <metadata
     id="metadata5">
    <rdf:RDF>
      <cc:Work
         rdf:about="">
        <dc:format>image/svg+xml</dc:format>
        <dc:type
           rdf:resource="http://purl.org/dc/dcmitype/StillImage" />
      </cc:Work>
    </rdf:RDF>
  </metadata>
  <g
     inkscape:label="Layer 1"
     inkscape:groupmode="layer"
     id="layer1">
    <g
       id="g844"
       transform="translate(6.3048999e-4,0.32999312)">
      <g
         id="g839">
        <g
           id="g845"
           transform="translate(-0.00191075,-0.11199701)">
          <path
             style="color:#000000;fill:#000000;-inkscape-stroke:none"
             d="M 1.3261719,0.66796875 C 0.59574747,0.66796875 0,1.2637162 0,1.9941406 0,2.724565 0.59574747,3.3203125 1.3261719,3.3203125 c 0.7304244,0 1.3242187,-0.5957475 1.3242187,-1.3261719 0,-0.7304244 -0.5937943,-1.32617185 -1.3242187,-1.32617185 z m 0,0.2890625 c 0.574587,0 1.0371094,0.46252235 1.0371094,1.03710935 0,0.5745871 -0.4625224,1.0371094 -1.0371094,1.0371094 -0.57458706,0 -1.0371094,-0.4625223 -1.0371094,-1.0371094 0,-0.574587 0.46252234,-1.03710935 1.0371094,-1.03710935 z"
             id="path833" />
          <path
             style="color:#000000;fill:#000000;-inkscape-stroke:none"
             d="m 2.90625,0.66796875 c -0.7304244,0 -1.3242188,0.59574745 -1.3242188,1.32617185 0,0.7304244 0.5937944,1.3261719 1.3242188,1.3261719 0.7304244,0 1.3261719,-0.5957475 1.3261719,-1.3261719 0,-0.7304244 -0.5957475,-1.32617185 -1.3261719,-1.32617185 z m 0,0.2890625 c 0.574587,0 1.0390625,0.46252235 1.0390625,1.03710935 0,0.5745871 -0.4644755,1.0371094 -1.0390625,1.0371094 -0.574587,0 -1.0371094,-0.4625223 -1.0371094,-1.0371094 0,-0.574587 0.4625224,-1.03710935 1.0371094,-1.03710935 z"
             id="circle838" />
          <g
             id="path840"
             style="fill:#000000">
            <path
               style="color:#000000;fill:#000000;stroke-width:0.0108415;-inkscape-stroke:none"
               d="M 2.0476256,2.6970793 C 1.9500108,2.5511432 1.8960627,2.4249043 1.8603968,2.2589616 1.8393244,2.160915 1.8365643,1.9148703 1.8554627,1.8191285 1.8763336,1.713398 1.923148,1.5792962 1.9715192,1.4866759 2.0177418,1.3981712 2.1021899,1.2741181 2.1162166,1.2741181 c 0.010452,0 0.07393,0.088091 0.1205776,0.1673277 0.1621673,0.2754643 0.2003022,0.6469424 0.097816,0.9528427 -0.015396,0.045957 -0.047118,0.1214382 -0.07049,0.1677372 -0.044977,0.089095 -0.134451,0.2228231 -0.1490847,0.2228231 -0.00479,0 -0.035121,-0.039496 -0.06741,-0.087769 z"
               id="path838" />
            <path
               style="color:#000000;fill:#000000;-inkscape-stroke:none"
               d="m 2.1132813,1.2695312 c -5.726e-4,2.375e-4 -0.003,0.00135 -0.00391,0.00195 -0.00182,0.00121 -0.00385,0.00199 -0.00586,0.00391 -0.00403,0.00384 -0.00828,0.00902 -0.013672,0.015625 -0.010779,0.013218 -0.024683,0.031611 -0.039063,0.052734 -0.028759,0.042246 -0.060727,0.096093 -0.083984,0.140625 -0.048701,0.093251 -0.096187,0.2275974 -0.1171875,0.3339844 -0.019259,0.097571 -0.015584,0.3416334 0.00586,0.4414062 0.035783,0.1664883 0.089595,0.2930836 0.1875001,0.4394532 0.016201,0.024221 0.0326,0.046456 0.044922,0.0625 0.00616,0.00802 0.011434,0.014886 0.015625,0.019531 0.0021,0.00232 0.00422,0.00443 0.00586,0.00586 0,0 0.00195,0.00195 0.00195,0.00195 0,0 0.00195,0 0.00195,0 0,0 0.00195,0.00195 0.00195,0.00195 4.573e-4,0 0.00331,-0.0017 0.00391,-0.00195 0,0 0.00195,-0.00195 0.00195,-0.00195 0.00189,-0.00128 0.00375,-0.00185 0.00586,-0.00391 0.00422,-0.0041 0.00997,-0.010512 0.015625,-0.017578 0.011311,-0.014132 0.026049,-0.034271 0.041016,-0.056641 0.029934,-0.044739 0.063289,-0.099667 0.085937,-0.1445313 0.023551,-0.046653 0.054772,-0.1215804 0.070312,-0.1679687 C 2.4428785,2.0889469 2.4052471,1.716433 2.2421875,1.4394531 2.2187639,1.3996653 2.1910895,1.356304 2.1679688,1.3242187 c -0.01156,-0.016043 -0.022929,-0.029366 -0.03125,-0.039063 -0.00416,-0.00485 -0.00665,-0.00889 -0.00977,-0.011719 -0.00156,-0.00141 -0.00439,-0.00103 -0.00586,-0.00195 0,0 -0.00195,-0.00195 -0.00195,-0.00195 0,0 -0.00195,0 -0.00195,0 -4.383e-4,0 -0.00333,-2.374e-4 -0.00391,0 z m 0.00195,0.00977 c 0,0 0.00195,0 0.00195,0 5.637e-4,4.317e-4 0.00119,0.00126 0.00195,0.00195 0.00254,0.0023 0.00578,0.00707 0.00977,0.011719 0.00798,0.0093 0.01785,0.023178 0.029297,0.039063 0.022893,0.031769 0.050995,0.071879 0.074219,0.1113282 0.1612747,0.2739481 0.1995937,0.6449562 0.097656,0.9492187 -0.015251,0.045526 -0.047119,0.1220242 -0.070312,0.1679688 -0.022328,0.044231 -0.056232,0.09818 -0.085937,0.1425781 -0.014853,0.022199 -0.028076,0.042915 -0.039063,0.056641 -0.00549,0.00686 -0.01197,0.012067 -0.015625,0.015625 -0.00137,0.00133 -9.841e-4,0.00315 -0.00195,0.00391 0,0 -0.00195,0 -0.00195,0 -0.00106,-9.241e-4 -0.00198,-0.00372 -0.00391,-0.00586 -0.00385,-0.00427 -0.00957,-0.00969 -0.015625,-0.017578 -0.012113,-0.015773 -0.026881,-0.038447 -0.042969,-0.0625 -0.097325,-0.1455024 -0.1519515,-0.2701501 -0.1875,-0.4355469 -0.020701,-0.09632 -0.022444,-0.3435877 -0.00391,-0.4375 0.020741,-0.1050738 0.067193,-0.240042 0.1152344,-0.3320313 0.022965,-0.043973 0.055457,-0.096766 0.083984,-0.1386718 0.014264,-0.020953 0.026665,-0.037973 0.037109,-0.050781 0.00522,-0.0064 0.010216,-0.012333 0.013672,-0.015625 0.00173,-0.00165 0.00292,-0.00325 0.00391,-0.00391 z"
               id="path841" />
          </g>
        </g>
      </g>
    </g>
  </g>
</svg>
