<?xml version="1.0" encoding="UTF-8" standalone="no"?>
<svg
   viewBox="0 0 16 16"
   version="1.1"
   id="svg1052"
   sodipodi:docname="local-add-symbolic.svg"
   inkscape:version="1.1.2 (0a00cf5339, 2022-02-04)"
   xmlns:inkscape="http://www.inkscape.org/namespaces/inkscape"
   xmlns:sodipodi="http://sodipodi.sourceforge.net/DTD/sodipodi-0.dtd"
   xmlns="http://www.w3.org/2000/svg"
   xmlns:svg="http://www.w3.org/2000/svg">
  <defs
     id="defs1056" />
  <sodipodi:namedview
     id="namedview1054"
     pagecolor="#ffffff"
     bordercolor="#666666"
     borderopacity="1.0"
     inkscape:pageshadow="2"
     inkscape:pageopacity="0.0"
     inkscape:pagecheckerboard="0"
     showgrid="false"
     inkscape:zoom="25.25"
     inkscape:cx="2.2970297"
     inkscape:cy="6.2772277"
     inkscape:window-width="1920"
     inkscape:window-height="1016"
     inkscape:window-x="0"
     inkscape:window-y="0"
     inkscape:window-maximized="1"
     inkscape:current-layer="g1050" />
  <g
     fill="gray"
     font-family="sans-serif"
     font-weight="400"
     white-space="normal"
     id="g1050">
    <path
       d="M3.994 1c-1.258.015-2.179-.029-2.932.387a1.878 1.878 0 0 0-.84.996C.059 2.82 0 3.343 0 4v8c0 .658.058 1.179.223 1.617.164.439.463.79.84.998.752.416 1.673.37 2.931.385H10v-1H4c-1.26-.015-2.087-.06-2.453-.262-.183-.1-.29-.212-.387-.472C1.063 13.006 1 12.592 1 12V8c0-.592.064-1.006.162-1.266s.203-.371.387-.472c.367-.203 1.195-.247 2.459-.262h3.435l2.022-2h2.527c1.264.015 2.092.06 2.46.262.183.1.288.212.386.472.098.26.162.674.162 1.266v4h1V6c0-.658-.058-1.179-.223-1.617-.02-.055-.048-.104-.074-.154l-.027-.057a1.838 1.838 0 0 0-.738-.787c-.753-.416-1.674-.37-2.932-.385H8.967L6.945 1H3.996zm.012 1h2.53L8.3 3.746 7.033 5H3.994c-1.258.014-2.179-.03-2.932.385-.022.012-.04.03-.062.043V4c0-.592.062-1.006.16-1.266s.203-.371.387-.472c.366-.203 1.195-.247 2.459-.262z"
       overflow="visible"
       style="font-feature-settings:normal;font-variant-alternates:normal;font-variant-caps:normal;font-variant-ligatures:none;font-variant-numeric:normal;font-variant-position:normal;isolation:auto;mix-blend-mode:normal;shape-padding:0;text-decoration-color:#000;text-decoration-line:none;text-decoration-style:solid;text-indent:0;text-transform:none;fill:#000000"
       id="path1046" />
    <path
       d="m13 11v2h-2v1h2v2h1v-2h2v-1h-2v-2z"
       overflow="visible"
       style="isolation:auto;mix-blend-mode:normal;text-decoration-color:#000;text-decoration-line:none;text-decoration-style:solid;text-indent:0;text-transform:none;fill:#000000"
       id="path1048" />
  </g>
</svg>
