<?xml version="1.0" encoding="UTF-8" standalone="no"?>
<!-- Generator: Adobe Illustrator 18.1.1, SVG Export Plug-In . SVG Version: 6.00 Build 0)  -->

<svg
   version="1.1"
   id="Capa_1"
   x="0px"
   y="0px"
   viewBox="0 0 16 16"
   xml:space="preserve"
   sodipodi:docname="scatter.svg"
   inkscape:version="1.1.2 (0a00cf5339, 2022-02-04)"
   width="16"
   height="16"
   xmlns:inkscape="http://www.inkscape.org/namespaces/inkscape"
   xmlns:sodipodi="http://sodipodi.sourceforge.net/DTD/sodipodi-0.dtd"
   xmlns="http://www.w3.org/2000/svg"
   xmlns:svg="http://www.w3.org/2000/svg"
   xmlns:rdf="http://www.w3.org/1999/02/22-rdf-syntax-ns#"
   xmlns:cc="http://creativecommons.org/ns#"
   xmlns:dc="http://purl.org/dc/elements/1.1/"><metadata
   id="metadata57"><rdf:RDF><cc:Work
       rdf:about=""><dc:format>image/svg+xml</dc:format><dc:type
         rdf:resource="http://purl.org/dc/dcmitype/StillImage" /></cc:Work></rdf:RDF></metadata><defs
   id="defs55" /><sodipodi:namedview
   pagecolor="#ffffff"
   bordercolor="#666666"
   borderopacity="1"
   objecttolerance="10"
   gridtolerance="10"
   guidetolerance="10"
   inkscape:pageopacity="0"
   inkscape:pageshadow="2"
   inkscape:window-width="1920"
   inkscape:window-height="1016"
   id="namedview53"
   showgrid="false"
   inkscape:zoom="27.040962"
   inkscape:cx="6.9154344"
   inkscape:cy="6.7120393"
   inkscape:window-x="0"
   inkscape:window-y="0"
   inkscape:window-maximized="1"
   inkscape:current-layer="g18"
   inkscape:pagecheckerboard="0" />
<g
   id="g20"
   transform="translate(0,-1.455)">
	<g
   id="g18">
		<g
   id="polygon2"
   transform="matrix(0.90412115,0,0,0.90412115,0,1.6611015)"
   style="fill:#000000"><path
     style="color:#000000;fill:#000000;-inkscape-stroke:none"
     d="M 17.455,17.325 V 15.667 H 1.658 V 0.13 H 0 v 17.195 z"
     id="path846" /><path
     style="color:#000000;fill:#000000;fill-opacity:0;-inkscape-stroke:none"
     d="M -0.5,-0.36914063 V 17.824219 h 18.455078 v -0.5 -2.15625 H 2.1582031 V -0.36914063 Z m 1,1 H 1.1582031 V 16.167969 H 16.955078 v 0.65625 H 0.5 Z"
     id="path848" /></g>
		<g
   id="circle4"
   style="fill:#000000"><path
     style="color:#000000;fill:#000000;stroke-width:0.904121;-inkscape-stroke:none"
     d="M 6.0151181,12.368608 A 1.3733602,1.3733602 0 0 1 4.641758,13.741969 1.3733602,1.3733602 0 0 1 3.2683978,12.368608 1.3733602,1.3733602 0 0 1 4.641758,10.995248 1.3733602,1.3733602 0 0 1 6.0151181,12.368608 Z"
     id="path852" /><path
     style="color:#000000;fill:#000000;fill-opacity:0;-inkscape-stroke:none"
     d="m 4.6425781,10.542969 c -1.0027965,0 -1.8261719,0.823375 -1.8261718,1.826172 0,1.002796 0.8233753,1.824218 1.8261718,1.824218 1.0027966,0 1.8242188,-0.821422 1.8242188,-1.824218 0,-1.002797 -0.8214222,-1.826172 -1.8242188,-1.826172 z m 0,0.904297 c 0.5141737,0 0.9199219,0.407701 0.9199219,0.921875 0,0.514173 -0.4057482,0.919922 -0.9199219,0.919922 -0.5141737,0 -0.921875,-0.405749 -0.921875,-0.919922 0,-0.514174 0.4077013,-0.921875 0.921875,-0.921875 z"
     id="path854" /></g>
		<g
   id="circle6"
   style="fill:#000000"><path
     style="color:#000000;fill:#000000;stroke-width:0.904121;-inkscape-stroke:none"
     d="M 6.9309926,8.5604496 A 1.3733602,1.3733602 0 0 1 5.5576324,9.9338098 1.3733602,1.3733602 0 0 1 4.1842723,8.5604496 1.3733602,1.3733602 0 0 1 5.5576324,7.1870894 1.3733602,1.3733602 0 0 1 6.9309926,8.5604496 Z"
     id="path858" /><path
     style="color:#000000;fill:#000000;fill-opacity:0;-inkscape-stroke:none"
     d="m 5.5585937,6.734375 c -1.0027965,0 -1.8261718,0.8233753 -1.8261718,1.8261719 0,1.0027965 0.8233753,1.8261721 1.8261718,1.8261721 1.0027966,0 1.8242188,-0.8233756 1.8242188,-1.8261721 0,-1.0027966 -0.8214222,-1.8261719 -1.8242188,-1.8261719 z m 0,0.9042969 c 0.5141737,0 0.9199219,0.4077013 0.9199219,0.921875 0,0.5141737 -0.4057482,0.921875 -0.9199219,0.921875 -0.5141736,0 -0.921875,-0.4077013 -0.921875,-0.921875 0,-0.5141737 0.4077014,-0.921875 0.921875,-0.921875 z"
     id="path860" /></g>
		
		
		<g
   id="circle12"
   style="fill:#000000"><path
     style="color:#000000;fill:#000000;stroke-width:0.904121;-inkscape-stroke:none"
     d="M 13.904478,7.5903282 A 1.3742641,1.3742641 0 0 1 12.530214,8.9645923 1.3742641,1.3742641 0 0 1 11.15595,7.5903282 1.3742641,1.3742641 0 0 1 12.530214,6.2160641 1.3742641,1.3742641 0 0 1 13.904478,7.5903282 Z"
     id="path864" /><path
     style="color:#000000;fill:#000000;fill-opacity:0;-inkscape-stroke:none"
     d="m 12.529297,5.7636719 c -1.003296,0 -1.826172,0.8228761 -1.826172,1.8261718 0,1.0032958 0.822876,1.8261719 1.826172,1.8261719 1.003296,0 1.828125,-0.8228761 1.828125,-1.8261719 0,-1.0032957 -0.824829,-1.8261718 -1.828125,-1.8261718 z m 0,0.9042968 c 0.514673,0 0.923828,0.4072021 0.923828,0.921875 0,0.514673 -0.409155,0.9218751 -0.923828,0.9218751 -0.514673,0 -0.921875,-0.4072021 -0.921875,-0.9218751 0,-0.5146729 0.407202,-0.9218749 0.921875,-0.921875 z"
     id="path866" /></g>
		<g
   id="circle14"
   style="fill:#000000"><path
     style="color:#000000;fill:#000000;stroke-width:0.904121;-inkscape-stroke:none"
     d="M 11.126667,10.336144 A 1.3742641,1.3742641 0 0 1 9.7524033,11.710409 1.3742641,1.3742641 0 0 1 8.3781391,10.336144 1.3742641,1.3742641 0 0 1 9.7524033,8.9618803 1.3742641,1.3742641 0 0 1 11.126667,10.336144 Z"
     id="path870" /><path
     style="color:#000000;fill:#000000;fill-opacity:0;-inkscape-stroke:none"
     d="m 9.7519531,8.5097656 c -1.0032958,0 -1.8261718,0.8228761 -1.8261719,1.8261724 10e-8,1.003295 0.8228761,1.826171 1.8261719,1.826171 1.0032959,0 1.8261719,-0.822876 1.8261719,-1.826171 0,-1.0032963 -0.822876,-1.8261724 -1.8261719,-1.8261724 z m 0,0.9042969 c 0.5146729,0 0.9218749,0.4072021 0.9218749,0.9218755 0,0.514672 -0.407202,0.921875 -0.9218749,0.921875 -0.5146729,0 -0.921875,-0.407203 -0.921875,-0.921875 0,-0.5146734 0.4072021,-0.9218755 0.921875,-0.9218755 z"
     id="path872" /></g>
		<g
   id="circle16"
   style="fill:#000000"><path
     style="color:#000000;fill:#000000;stroke-width:0.904121;-inkscape-stroke:none"
     d="M 12.196595,4.8427038 A 1.3733602,1.3733602 0 0 1 10.823235,6.216064 1.3733602,1.3733602 0 0 1 9.4498744,4.8427038 1.3733602,1.3733602 0 0 1 10.823235,3.4693437 a 1.3733602,1.3733602 0 0 1 1.37336,1.3733601 z"
     id="path876" /><path
     style="color:#000000;fill:#000000;fill-opacity:0;-inkscape-stroke:none"
     d="m 10.822266,3.0175781 c -1.0027969,0 -1.8242191,0.8214222 -1.8242191,1.8242188 0,1.0027965 0.8214222,1.8261719 1.8242191,1.8261718 1.002796,0 1.826172,-0.8233753 1.826172,-1.8261718 0,-1.0027966 -0.823376,-1.8242188 -1.826172,-1.8242188 z m 0,0.9042969 c 0.514173,0 0.921875,0.4057482 0.921875,0.9199219 0,0.5141737 -0.407702,0.921875 -0.921875,0.921875 -0.514174,0 -0.9199222,-0.4077013 -0.9199222,-0.921875 0,-0.5141737 0.4057482,-0.9199219 0.9199222,-0.9199219 z"
     id="path878" /></g>
	</g>
</g>
<g
   id="g22"
   transform="translate(0,-1.455)">
</g>
<g
   id="g24"
   transform="translate(0,-1.455)">
</g>
<g
   id="g26"
   transform="translate(0,-1.455)">
</g>
<g
   id="g28"
   transform="translate(0,-1.455)">
</g>
<g
   id="g30"
   transform="translate(0,-1.455)">
</g>
<g
   id="g32"
   transform="translate(0,-1.455)">
</g>
<g
   id="g34"
   transform="translate(0,-1.455)">
</g>
<g
   id="g36"
   transform="translate(0,-1.455)">
</g>
<g
   id="g38"
   transform="translate(0,-1.455)">
</g>
<g
   id="g40"
   transform="translate(0,-1.455)">
</g>
<g
   id="g42"
   transform="translate(0,-1.455)">
</g>
<g
   id="g44"
   transform="translate(0,-1.455)">
</g>
<g
   id="g46"
   transform="translate(0,-1.455)">
</g>
<g
   id="g48"
   transform="translate(0,-1.455)">
</g>
<g
   id="g50"
   transform="translate(0,-1.455)">
</g>
</svg>
