<?xml version="1.0" encoding="UTF-8" standalone="no"?>
<svg
   height="16px"
   viewBox="0 0 16 16"
   width="16px"
   version="1.1"
   id="svg4"
   sodipodi:docname="padlock2-symbolic.svg"
   inkscape:version="1.1.2 (0a00cf5339, 2022-02-04)"
   xmlns:inkscape="http://www.inkscape.org/namespaces/inkscape"
   xmlns:sodipodi="http://sodipodi.sourceforge.net/DTD/sodipodi-0.dtd"
   xmlns="http://www.w3.org/2000/svg"
   xmlns:svg="http://www.w3.org/2000/svg">
  <defs
     id="defs8" />
  <sodipodi:namedview
     id="namedview6"
     pagecolor="#ffffff"
     bordercolor="#666666"
     borderopacity="1.0"
     inkscape:pageshadow="2"
     inkscape:pageopacity="0.0"
     inkscape:pagecheckerboard="0"
     showgrid="false"
     inkscape:zoom="50.5"
     inkscape:cx="8"
     inkscape:cy="7.990099"
     inkscape:window-width="1920"
     inkscape:window-height="1016"
     inkscape:window-x="0"
     inkscape:window-y="0"
     inkscape:window-maximized="1"
     inkscape:current-layer="svg4" />
  <path
     d="m 8 1 c -2.199219 0 -4 1.800781 -4 4 v 2 c -1.109375 0 -2 0.890625 -2 2 v 5 c 0 0.554688 0.445312 1 1 1 h 10 c 0.554688 0 1 -0.445312 1 -1 v -5 c 0 -1.109375 -0.890625 -2 -2 -2 v -2 c 0 -2.199219 -1.800781 -4 -4 -4 z m 0 2 c 1.125 0 2 0.875 2 2 v 2 h -4 v -2 c 0 -1.125 0.875 -2 2 -2 z m 0 0"
     fill="#2e3436"
     id="path2"
     style="fill:#000000" />
</svg>
