<?xml version="1.0" encoding="UTF-8" standalone="no"?>
<svg
   version="1.1"
   viewBox="0 0 16 16"
   id="svg1394"
   sodipodi:docname="remote-add-symbolic.svg"
   inkscape:version="1.1.2 (0a00cf5339, 2022-02-04)"
   xmlns:inkscape="http://www.inkscape.org/namespaces/inkscape"
   xmlns:sodipodi="http://sodipodi.sourceforge.net/DTD/sodipodi-0.dtd"
   xmlns="http://www.w3.org/2000/svg"
   xmlns:svg="http://www.w3.org/2000/svg">
  <defs
     id="defs1398" />
  <sodipodi:namedview
     id="namedview1396"
     pagecolor="#ffffff"
     bordercolor="#666666"
     borderopacity="1.0"
     inkscape:pageshadow="2"
     inkscape:pageopacity="0.0"
     inkscape:pagecheckerboard="0"
     showgrid="false"
     inkscape:zoom="25.25"
     inkscape:cx="5.4257426"
     inkscape:cy="6.8712871"
     inkscape:window-width="1920"
     inkscape:window-height="1016"
     inkscape:window-x="0"
     inkscape:window-y="0"
     inkscape:window-maximized="1"
     inkscape:current-layer="g1392" />
  <g
     fill="#808080"
     id="g1392">
    <path
       d="m4 0c-0.658-4.8194e-4 -1.1792 0.059609-1.6172 0.22461-0.42194 0.15138-0.7759 0.44854-0.99805 0.83789-0.416 0.752-0.36977 1.6736-0.38477 2.9316v0.93945c0.28633-0.27571 0.62202-0.4973 1-0.63672v-0.29688c0.015-1.26 0.057766-2.0871 0.25977-2.4531 0.1-0.184 0.21461-0.28972 0.47461-0.38672 0.26-0.097 0.67363-0.16059 1.2656-0.16016l8 0.00586c0.592 4.336e-4 1.0056 0.063156 1.2656 0.16016 0.26 0.098 0.37361 0.20372 0.47461 0.38672 0.202 0.366 0.24477 1.1931 0.25977 2.4531v0.29492c0.37799 0.13929 0.7138 0.36089 1 0.63672v-0.9375c-0.015-1.258 0.030234-2.1786-0.38477-2.9316-0.22215-0.38935-0.57611-0.68651-0.99805-0.83789-0.438-0.164-0.96019-0.22413-1.6172-0.22461z"
       solid-color="#000000"
       style="isolation:auto;mix-blend-mode:normal;text-decoration-color:#000000;text-decoration-line:none;text-decoration-style:solid;text-indent:0;text-transform:none;white-space:normal;fill:#000000"
       id="path1380" />
    <path
       id="path1382"
       style="isolation:auto;mix-blend-mode:normal;text-decoration-color:#000000;text-decoration-line:none;text-decoration-style:solid;text-indent:0;text-transform:none;white-space:normal;fill:#000000"
       d="M 3.9863281 10 C 3.3259281 9.9995181 2.8009281 10.059609 2.3613281 10.224609 C 1.9378581 10.375989 1.5843081 10.67315 1.3613281 11.0625 C 1.0691181 11.58881 1.01783 12.2503 1 13 C 1.017835 13.74966 1.0691261 14.4112 1.3613281 14.9375 C 1.5842881 15.32685 1.9378381 15.624011 2.3613281 15.775391 C 2.8009281 15.940391 3.3259081 15.99952 3.9863281 16 L 9.1855469 16.003906 L 9.1855469 15.003906 L 3.9863281 15 C 3.3921681 14.999566 2.9757437 14.936844 2.7148438 14.839844 C 2.4538937 14.742844 2.3386512 14.637125 2.2382812 14.453125 C 2.1004213 14.204275 2.0491381 13.66641 2.0175781 13 C 2.0491321 12.33356 2.1004242 11.795775 2.2382812 11.546875 C 2.3386412 11.362875 2.4538938 11.257156 2.7148438 11.160156 C 2.9757938 11.063156 3.3922081 10.99957 3.9863281 11 L 9.1855469 11.003906 L 9.1855469 10.003906 L 3.9863281 10 z " />
    <path
       d="m4 5c-0.658-4.82e-4 -1.1792 0.059609-1.6172 0.22461-0.42194 0.15138-0.7759 0.44854-0.99805 0.83789-0.416 0.752-0.36977 1.6736-0.38477 2.9316v0.93945c0.28633-0.27571 0.62202-0.4973 1-0.63672v-0.29688c0.015-1.26 0.057766-2.0871 0.25977-2.4531 0.1-0.184 0.21461-0.28972 0.47461-0.38672 0.26-0.097 0.67363-0.16059 1.2656-0.16016l8 0.00586c0.592 4.336e-4 1.0056 0.063156 1.2656 0.16016 0.26 0.098 0.37361 0.20372 0.47461 0.38672 0.202 0.366 0.24477 1.1931 0.25977 2.4531v0.29492c0.37799 0.13929 0.7138 0.36089 1 0.63672v-0.9375c-0.015-1.258 0.03023-2.1786-0.38477-2.9316-0.22215-0.38935-0.57611-0.68651-0.99805-0.83789-0.438-0.164-0.96019-0.22413-1.6172-0.22461z"
       solid-color="#000000"
       style="isolation:auto;mix-blend-mode:normal;text-decoration-color:#000000;text-decoration-line:none;text-decoration-style:solid;text-indent:0;text-transform:none;white-space:normal;fill:#000000"
       id="path1384" />
    <rect
       x="11"
       y="3"
       width="2"
       height="1"
       id="rect1386"
       style="fill:#000000" />
    <rect
       x="11"
       y="8"
       width="2"
       height="1"
       id="rect1388"
       style="fill:#000000" />
    <path
       d="m 13.018255,11.017172 v 2 h -2 v 1 h 2 v 2 h 1 v -2 h 2 v -1 h -2 v -2 z"
       overflow="visible"
       style="text-indent:0;text-decoration-line:none;text-decoration-style:solid;text-decoration-color:#000000;text-transform:none;isolation:auto;mix-blend-mode:normal;fill:#000000"
       id="path1048" />
  </g>
</svg>
