<?xml version="1.0" encoding="UTF-8" standalone="no"?>
<svg
   width="16"
   height="16"
   viewBox="0 0 4.2333332 4.2333335"
   version="1.1"
   id="svg8"
   inkscape:version="1.1.1 (3bf5ae0d25, 2021-09-20)"
   sodipodi:docname="right-symbolic.svg"
   xmlns:inkscape="http://www.inkscape.org/namespaces/inkscape"
   xmlns:sodipodi="http://sodipodi.sourceforge.net/DTD/sodipodi-0.dtd"
   xmlns="http://www.w3.org/2000/svg"
   xmlns:svg="http://www.w3.org/2000/svg"
   xmlns:rdf="http://www.w3.org/1999/02/22-rdf-syntax-ns#"
   xmlns:cc="http://creativecommons.org/ns#"
   xmlns:dc="http://purl.org/dc/elements/1.1/">
  <defs
     id="defs2" />
  <sodipodi:namedview
     id="base"
     pagecolor="#ffffff"
     bordercolor="#666666"
     borderopacity="1.0"
     inkscape:pageopacity="0.0"
     inkscape:pageshadow="2"
     inkscape:zoom="31.678384"
     inkscape:cx="2.7463522"
     inkscape:cy="10.527683"
     inkscape:document-units="mm"
     inkscape:current-layer="g845"
     inkscape:document-rotation="0"
     showgrid="false"
     units="px"
     inkscape:window-width="1920"
     inkscape:window-height="1016"
     inkscape:window-x="0"
     inkscape:window-y="0"
     inkscape:window-maximized="1"
     inkscape:pagecheckerboard="0" />
  <metadata
     id="metadata5">
    <rdf:RDF>
      <cc:Work
         rdf:about="">
        <dc:format>image/svg+xml</dc:format>
        <dc:type
           rdf:resource="http://purl.org/dc/dcmitype/StillImage" />
      </cc:Work>
    </rdf:RDF>
  </metadata>
  <g
     inkscape:label="Layer 1"
     inkscape:groupmode="layer"
     id="layer1">
    <g
       id="g844"
       transform="translate(6.3048999e-4,0.32999312)">
      <g
         id="g839">
        <g
           id="g845"
           transform="translate(-0.00191075,-0.11199701)">
          <path
             style="color:#000000;fill:#000000;-inkscape-stroke:none"
             d="M 1.3789062,0.56054687 C 0.61897856,0.56054687 0,1.1795254 0,1.9394531 c 0,0.7599277 0.61897856,1.3808594 1.3789062,1.3808594 0.7599277,0 1.3789063,-0.6209317 1.3789063,-1.3808594 0,-0.7599277 -0.6189786,-1.37890622 -1.3789063,-1.37890623 z m 0,0.30078126 c 0.5977959,0 1.0800782,0.48032917 1.0800782,1.07812497 0,0.5977958 -0.4822823,1.0800781 -1.0800782,1.0800782 -0.59779576,0 -1.07812495,-0.4822824 -1.07812495,-1.0800782 0,-0.5977958 0.48032919,-1.07812497 1.07812495,-1.07812497 z"
             id="path833" />
          <g
             id="circle847"
             style="fill:#000000">
            <path
               style="color:#000000;fill:#000000;stroke-width:0.3;-inkscape-stroke:none"
               d="M 4.0870664,1.9403578 A 1.2291892,1.2291892 0 0 1 2.8578773,3.169547 1.2291892,1.2291892 0 0 1 1.6286881,1.9403578 1.2291892,1.2291892 0 0 1 2.8578773,0.71116865 1.2291892,1.2291892 0 0 1 4.0870664,1.9403578 Z"
               id="path834" />
            <path
               style="color:#000000;fill:#000000;-inkscape-stroke:none"
               d="m 2.8574219,0.56054687 c -0.7599277,0 -1.3789063,0.61897853 -1.3789063,1.37890623 0,0.7599277 0.6189786,1.3808594 1.3789063,1.3808594 0.7599277,0 1.3789062,-0.6209317 1.3789062,-1.3808594 0,-0.7599277 -0.6189785,-1.37890622 -1.3789062,-1.37890623 z m 0,0.30078126 c 0.5977958,0 1.0800781,0.48032917 1.0800781,1.07812497 0,0.5977958 -0.4822823,1.0800781 -1.0800781,1.0800782 -0.5977958,0 -1.078125,-0.4822824 -1.078125,-1.0800782 0,-0.5977958 0.4803292,-1.07812497 1.078125,-1.07812497 z"
               id="path836" />
          </g>
        </g>
      </g>
    </g>
  </g>
</svg>
