<?xml version="1.0" encoding="UTF-8" standalone="no"?>
<!-- Created with Inkscape (http://www.inkscape.org/) -->

<svg
   width="16"
   height="16"
   viewBox="0 0 4.2333332 4.2333335"
   version="1.1"
   id="svg8"
   inkscape:version="1.1.1 (3bf5ae0d25, 2021-09-20)"
   sodipodi:docname="type-real-symbolic.svg"
   xmlns:inkscape="http://www.inkscape.org/namespaces/inkscape"
   xmlns:sodipodi="http://sodipodi.sourceforge.net/DTD/sodipodi-0.dtd"
   xmlns="http://www.w3.org/2000/svg"
   xmlns:svg="http://www.w3.org/2000/svg"
   xmlns:rdf="http://www.w3.org/1999/02/22-rdf-syntax-ns#"
   xmlns:cc="http://creativecommons.org/ns#"
   xmlns:dc="http://purl.org/dc/elements/1.1/">
  <defs
     id="defs2" />
  <sodipodi:namedview
     id="base"
     pagecolor="#ffffff"
     bordercolor="#666666"
     borderopacity="1.0"
     inkscape:pageopacity="0.0"
     inkscape:pageshadow="2"
     inkscape:zoom="15.839192"
     inkscape:cx="6.1871843"
     inkscape:cy="8.870402"
     inkscape:document-units="mm"
     inkscape:current-layer="layer1"
     showgrid="false"
     units="px"
     inkscape:window-width="1920"
     inkscape:window-height="1016"
     inkscape:window-x="0"
     inkscape:window-y="0"
     inkscape:window-maximized="1"
     inkscape:pagecheckerboard="0" />
  <metadata
     id="metadata5">
    <rdf:RDF>
      <cc:Work
         rdf:about="">
        <dc:format>image/svg+xml</dc:format>
        <dc:type
           rdf:resource="http://purl.org/dc/dcmitype/StillImage" />
      </cc:Work>
    </rdf:RDF>
  </metadata>
  <g
     inkscape:label="Layer 1"
     inkscape:groupmode="layer"
     id="layer1"
     transform="translate(0,-292.76665)">
    <g
       aria-label="รท"
       id="text817"
       style="font-size:0.705556px;letter-spacing:0px;word-spacing:0px;stroke-width:0.264583;fill:#000000">
      <path
         d="m 2.5287457,293.83755 q 0,0.20447 -0.1192742,0.31238 -0.1192741,0.10224 -0.2726265,0.10224 -0.1647119,0 -0.283986,-0.10224 -0.1192741,-0.10791 -0.1192741,-0.31238 0,-0.20447 0.1192741,-0.31239 0.1192741,-0.10791 0.283986,-0.10791 0.1533524,0 0.2726265,0.10791 0.1192742,0.10792 0.1192742,0.31239 z m 0,2.0731 q 0,0.19879 -0.1192742,0.31238 -0.1192741,0.10792 -0.2726265,0.10792 -0.1647119,0 -0.283986,-0.10792 -0.1192741,-0.11359 -0.1192741,-0.31238 0,-0.20447 0.1192741,-0.31239 0.1192741,-0.11359 0.283986,-0.11359 0.1533524,0 0.2726265,0.11359 0.1192742,0.10792 0.1192742,0.31239 z M 0.93274436,294.58159 H 3.3182267 v 0.57365 H 0.93274436 Z"
         style="-inkscape-font-specification:'Ubuntu Mono Bold';fill:#000000"
         id="path824" />
    </g>
  </g>
</svg>
