<?xml version="1.0" encoding="iso-8859-1"?>
<!-- Generator: Adobe Illustrator 16.0.0, SVG Export Plug-In . SVG Version: 6.00 Build 0)  -->
<!DOCTYPE svg PUBLIC "-//W3C//DTD SVG 1.1//EN" "http://www.w3.org/Graphics/SVG/1.1/DTD/svg11.dtd">
<svg version="1.1" id="Capa_1" xmlns="http://www.w3.org/2000/svg" xmlns:xlink="http://www.w3.org/1999/xlink" x="0px" y="0px"
	 width="92.668px" height="92.668px" viewBox="0 0 92.668 92.668" style="enable-background:new 0 0 92.668 92.668;"
	 xml:space="preserve">
<g>
	<g>
		<path d="M9.5,28.358V2.304c0-1.104-0.895-2-2-2c-1.104,0-2,0.896-2,2v26.056C2.422,28.615,0,31.189,0,34.334v18.667
			c0,3.146,2.422,5.721,5.5,5.976v31.388c0,1.104,0.896,2,2,2c1.105,0,2-0.896,2-2V58.976c3.08-0.255,5.5-2.83,5.5-5.975V34.333
			C15,31.188,12.58,28.614,9.5,28.358z"/>
		<path d="M49.5,14.358V2.304c0-1.104-0.895-2-2-2c-1.104,0-2,0.896-2,2v12.056c-3.078,0.255-5.5,2.83-5.5,5.975v18.667
			c0,3.145,2.422,5.72,5.5,5.975v45.388c0,1.104,0.896,2,2,2c1.105,0,2-0.896,2-2V44.976C52.58,44.721,55,42.146,55,39V20.333
			C55,17.188,52.58,14.614,49.5,14.358z"/>
		<path d="M87.168,34.025V2.304c0-1.104-0.896-2-2-2c-1.105,0-2,0.896-2,2v31.723c-3.08,0.255-5.5,2.83-5.5,5.975v18.667
			c0,3.145,2.42,5.72,5.5,5.975v25.721c0,1.104,0.895,2,2,2c1.104,0,2-0.896,2-2V64.643c3.078-0.255,5.5-2.83,5.5-5.976V40
			C92.668,36.855,90.246,34.281,87.168,34.025z"/>
	</g>
</g>
<g>
</g>
<g>
</g>
<g>
</g>
<g>
</g>
<g>
</g>
<g>
</g>
<g>
</g>
<g>
</g>
<g>
</g>
<g>
</g>
<g>
</g>
<g>
</g>
<g>
</g>
<g>
</g>
<g>
</g>
</svg>
