<?xml version="1.0" encoding="UTF-8" standalone="no"?>
<svg
   xmlns:dc="http://purl.org/dc/elements/1.1/"
   xmlns:cc="http://creativecommons.org/ns#"
   xmlns:rdf="http://www.w3.org/1999/02/22-rdf-syntax-ns#"
   xmlns:svg="http://www.w3.org/2000/svg"
   xmlns="http://www.w3.org/2000/svg"
   xmlns:sodipodi="http://sodipodi.sourceforge.net/DTD/sodipodi-0.dtd"
   xmlns:inkscape="http://www.inkscape.org/namespaces/inkscape"
   width="16"
   height="16"
   viewBox="0 0 4.2333332 4.2333335"
   version="1.1"
   id="svg8"
   inkscape:version="1.0.2 (e86c870879, 2021-01-15)"
   sodipodi:docname="view.svg">
  <defs
     id="defs2" />
  <sodipodi:namedview
     id="base"
     pagecolor="#ffffff"
     bordercolor="#666666"
     borderopacity="1.0"
     inkscape:pageopacity="0.0"
     inkscape:pageshadow="2"
     inkscape:zoom="16"
     inkscape:cx="24.081172"
     inkscape:cy="7.8466327"
     inkscape:document-units="mm"
     inkscape:current-layer="g848"
     showgrid="false"
     units="px"
     inkscape:window-width="1920"
     inkscape:window-height="1016"
     inkscape:window-x="0"
     inkscape:window-y="0"
     inkscape:window-maximized="1"
     inkscape:document-rotation="0" />
  <metadata
     id="metadata5">
    <rdf:RDF>
      <cc:Work
         rdf:about="">
        <dc:format>image/svg+xml</dc:format>
        <dc:type
           rdf:resource="http://purl.org/dc/dcmitype/StillImage" />
        <dc:title />
      </cc:Work>
    </rdf:RDF>
  </metadata>
  <g
     inkscape:label="Layer 1"
     inkscape:groupmode="layer"
     id="layer1"
     transform="translate(0,-292.76665)">
    <g
       id="g848"
       transform="translate(-0.088307,0.02280875)">
      <rect
         y="293.08524"
         x="0.42837355"
         height="3.5532002"
         width="3.5532002"
         id="rect815"
         style="fill:none;fill-opacity:1;stroke:#3d3d3d;stroke-width:0.2;stroke-miterlimit:4;stroke-dasharray:none;stroke-dashoffset:0;stroke-opacity:1" />
      <path
         style="fill:none;stroke:#3d3d3d;stroke-width:0.1965051;stroke-linecap:butt;stroke-linejoin:miter;stroke-miterlimit:4;stroke-dasharray:none;stroke-opacity:1"
         d="m 1.5869128,293.91531 0,2.8174"
         id="path838"
         inkscape:connector-curvature="0"
         sodipodi:nodetypes="cc" />
      <rect
         style="fill:none;fill-opacity:1;stroke:#3d3d3d;stroke-width:0.2;stroke-miterlimit:4;stroke-dasharray:none;stroke-dashoffset:0;stroke-opacity:1"
         id="rect850"
         width="3.5532002"
         height="0.73745686"
         x="0.42837355"
         y="293.08524" />
      <filter
         id="a"
         height="100%"
         width="100%"
         x="0%"
         y="0%">
        <feColorMatrix
           in="SourceGraphic"
           type="matrix"
           values="0 0 0 0 1 0 0 0 0 1 0 0 0 0 1 0 0 0 1 0"
           id="feColorMatrix836" />
      </filter>
      <mask
         id="b">
        <g
           filter="url(#a)"
           id="g841">
          <path
             d="m 0 0 h 16 v 16 h -16 z"
             fill-opacity="0.3"
             id="path839" />
        </g>
      </mask>
      <clipPath
         id="c">
        <path
           d="m 0 0 h 1024 v 800 h -1024 z"
           id="path844" />
      </clipPath>
      <mask
         id="d">
        <g
           filter="url(#a)"
           id="g849">
          <path
             d="m 0 0 h 16 v 16 h -16 z"
             fill-opacity="0.05"
             id="path847" />
        </g>
      </mask>
      <clipPath
         id="e">
        <path
           d="m 0 0 h 1024 v 800 h -1024 z"
           id="path852-3" />
      </clipPath>
      <mask
         id="f">
        <g
           filter="url(#a)"
           id="g857">
          <path
             d="m 0 0 h 16 v 16 h -16 z"
             fill-opacity="0.05"
             id="path855" />
        </g>
      </mask>
      <clipPath
         id="g">
        <path
           d="m 0 0 h 1024 v 800 h -1024 z"
           id="path860" />
      </clipPath>
      <mask
         id="h">
        <g
           filter="url(#a)"
           id="g865">
          <path
             d="m 0 0 h 16 v 16 h -16 z"
             fill-opacity="0.05"
             id="path863" />
        </g>
      </mask>
      <clipPath
         id="i">
        <path
           d="m 0 0 h 1024 v 800 h -1024 z"
           id="path868" />
      </clipPath>
      <mask
         id="j">
        <g
           filter="url(#a)"
           id="g873">
          <path
             d="m 0 0 h 16 v 16 h -16 z"
             fill-opacity="0.05"
             id="path871" />
        </g>
      </mask>
      <clipPath
         id="k">
        <path
           d="m 0 0 h 1024 v 800 h -1024 z"
           id="path876" />
      </clipPath>
      <mask
         id="l">
        <g
           filter="url(#a)"
           id="g881">
          <path
             d="m 0 0 h 16 v 16 h -16 z"
             fill-opacity="0.05"
             id="path879" />
        </g>
      </mask>
      <clipPath
         id="m">
        <path
           d="m 0 0 h 1024 v 800 h -1024 z"
           id="path884" />
      </clipPath>
      <mask
         id="n">
        <g
           filter="url(#a)"
           id="g889">
          <path
             d="m 0 0 h 16 v 16 h -16 z"
             fill-opacity="0.05"
             id="path887" />
        </g>
      </mask>
      <clipPath
         id="o">
        <path
           d="m 0 0 h 1024 v 800 h -1024 z"
           id="path892" />
      </clipPath>
      <mask
         id="p">
        <g
           filter="url(#a)"
           id="g897">
          <path
             d="m 0 0 h 16 v 16 h -16 z"
             fill-opacity="0.3"
             id="path895" />
        </g>
      </mask>
      <clipPath
         id="q">
        <path
           d="m 0 0 h 1024 v 800 h -1024 z"
           id="path900" />
      </clipPath>
      <mask
         id="r">
        <g
           filter="url(#a)"
           id="g905">
          <path
             d="m 0 0 h 16 v 16 h -16 z"
             fill-opacity="0.5"
             id="path903" />
        </g>
      </mask>
      <clipPath
         id="s">
        <path
           d="m 0 0 h 1024 v 800 h -1024 z"
           id="path908" />
      </clipPath>
      <mask
         id="t">
        <g
           filter="url(#a)"
           id="g913">
          <path
             d="m 0 0 h 16 v 16 h -16 z"
             fill-opacity="0.4"
             id="path911" />
        </g>
      </mask>
      <clipPath
         id="u">
        <path
           d="m 0 0 h 1024 v 800 h -1024 z"
           id="path916" />
      </clipPath>
      <mask
         id="v">
        <g
           filter="url(#a)"
           id="g921">
          <path
             d="m 0 0 h 16 v 16 h -16 z"
             fill-opacity="0.4"
             id="path919" />
        </g>
      </mask>
      <clipPath
         id="w">
        <path
           d="m 0 0 h 1024 v 800 h -1024 z"
           id="path924" />
      </clipPath>
      <mask
         id="x">
        <g
           filter="url(#a)"
           id="g929">
          <path
             d="m 0 0 h 16 v 16 h -16 z"
             fill-opacity="0.5"
             id="path927" />
        </g>
      </mask>
      <clipPath
         id="y">
        <path
           d="m 0 0 h 1024 v 800 h -1024 z"
           id="path932" />
      </clipPath>
      <mask
         id="z">
        <g
           filter="url(#a)"
           id="g937">
          <path
             d="m 0 0 h 16 v 16 h -16 z"
             fill-opacity="0.5"
             id="path935" />
        </g>
      </mask>
      <clipPath
         id="A">
        <path
           d="m 0 0 h 1024 v 800 h -1024 z"
           id="path940" />
      </clipPath>
      <path
         d="m 141.75014,178.7965 h 2.76469 c -0.31316,0.13022 -0.34313,0.65112 0,0.79375 h -2.76469 z m 0,0"
         fill="#2e3436"
         id="path943"
         style="stroke-width:0.264583" />
      <g
         id="g1134"
         transform="matrix(0,0.82672704,-0.82672704,0,245.53139,291.66979)">
        <path
           d="m 4.1792099,292.28724 c -0.8009845,0 -1.4572753,0.65423 -1.4572753,1.45521 0,0.80099 0.6562908,1.45521 1.4572753,1.45521 0.8009848,0 1.4562421,-0.65422 1.4562421,-1.45521 0,-0.80098 -0.6552573,-1.45521 -1.4562421,-1.45521 z m 0,0.52917 c 0.5146974,0 0.9270754,0.41135 0.9270754,0.92604 0,0.5147 -0.412378,0.92604 -0.9270754,0.92604 -0.5157306,0 -0.9270752,-0.41134 -0.9270752,-0.92604 0,-0.51469 0.4113446,-0.92604 0.9270752,-0.92604 z m 0,0"
           fill="#2e3436"
           id="path971"
           style="fill:#3d3d3d;fill-opacity:1;stroke-width:0.264583" />
        <path
           d="m 5.1031846,294.40081 c -0.1074869,0.001 -0.2046388,0.0661 -0.2449462,0.16537 -0.040308,0.10025 -0.016536,0.21394 0.060978,0.28938 l 1.0593668,1.05834 c 0.066146,0.0692 0.1653645,0.0971 0.2573485,0.0723 0.093018,-0.0238 0.1653646,-0.0961 0.1891358,-0.18913 0.024805,-0.092 -0.0031,-0.1912 -0.072347,-0.25735 l -1.0593668,-1.05833 c -0.049609,-0.0517 -0.1188559,-0.0806 -0.1901693,-0.0806 z m 0,0"
           fill="#2e3436"
           id="path973"
           style="fill:#3d3d3d;fill-opacity:1;stroke-width:0.264583" />
      </g>
      <path
         d="m 48.362559,160.83171 c 0.07338,0 0.132292,0.0589 0.132292,0.13229 v 0.26458 c 0,0.0734 -0.05891,0.13229 -0.132292,0.13229 -0.07338,0 -0.132292,-0.0589 -0.132292,-0.13229 V 160.964 c 0,-0.0734 0.05891,-0.13229 0.132292,-0.13229 z m 0,0"
         fill="#2e3436"
         id="path983"
         style="stroke-width:0.264583" />
      <path
         d="m 47.568809,160.83171 c 0.07338,0 0.132292,0.0589 0.132292,0.13229 v 0.26458 c 0,0.0734 -0.05891,0.13229 -0.132292,0.13229 -0.07338,0 -0.132292,-0.0589 -0.132292,-0.13229 V 160.964 c 0,-0.0734 0.05891,-0.13229 0.132292,-0.13229 z m 0,0"
         fill="#2e3436"
         id="path987"
         style="stroke-width:0.264583" />
      <path
         d="m 53.654226,160.56712 c -0.144696,0 -0.264584,0.12092 -0.264584,0.26459 0,0.14469 0.119888,0.26458 0.264584,0.26458 0.144692,0 0.264583,-0.11989 0.264583,-0.26458 0,-0.14367 -0.119891,-0.26459 -0.264583,-0.26459 z m 0,0"
         fill="#2e3436"
         id="path991"
         style="stroke-width:0.264583" />
      <path
         d="m 52.848072,160.56712 c -0.137459,0 -0.25218,0.11472 -0.25218,0.25218 v 0.0248 c 0,0.13746 0.114721,0.25219 0.25218,0.25219 h 0.02479 c 0.137462,0 0.252183,-0.11473 0.252183,-0.25219 v -0.0248 c 0,-0.13746 -0.114721,-0.25218 -0.252183,-0.25218 z m 0,0"
         fill="#2e3436"
         id="path995"
         style="stroke-width:0.264583" />
      <path
         inkscape:connector-curvature="0"
         id="path1136"
         d="M 1.6198677,295.13256 H 0.51234069"
         style="fill:none;stroke:#3d3d3d;stroke-width:0.196505;stroke-linecap:butt;stroke-linejoin:miter;stroke-miterlimit:4;stroke-dasharray:none;stroke-opacity:1"
         sodipodi:nodetypes="cc" />
      <path
         inkscape:connector-curvature="0"
         id="path1138"
         d="m 2.7554177,296.14284 7.994e-4,0.41062"
         style="fill:none;stroke:#3d3d3d;stroke-width:0.197594;stroke-linecap:butt;stroke-linejoin:miter;stroke-miterlimit:4;stroke-dasharray:none;stroke-opacity:1"
         sodipodi:nodetypes="cc" />
    </g>
  </g>
</svg>
